# xmcd
#
# Track frame offsets: 
#        182
#        28722
#        90045
#        140545
#        198132
#        231472
#
# Disc length: 3954 seconds
#
# Revision: 8
# Processed by: cddbd v1.5.2PL0 Copyright (c) Steve Scherf et al.
# Submitted via: ExactAudioCopy v0.95a5
#
DISCID=430f7006
DTITLE=The Borodin Trio - Beethoven - Piano Trios IV
DYEAR=1984
DGENRE=Classical
TTITLE0=(CHANDOS CHAN 8355) Beethoven - Piano Trio No. 8 in B flat maj
TTITLE0=or, Op. posth. (WoO No. 38) - Allegretto
TTITLE1=(CHANDOS CHAN 8355) Beethoven - Piano Trio No. 7 in B flat maj
TTITLE1=or Op. 97 ''Archduke'' - 1. Allegro moderato
TTITLE2=(CHANDOS CHAN 8355) Beethoven - Piano Trio No. 7 in B flat maj
TTITLE2=or Op. 97 ''Archduke'' - 2. Allegretto
TTITLE3=(CHANDOS CHAN 8355) Beethoven - Piano Trio No. 7 in B flat maj
TTITLE3=or Op. 97 ''Archduke'' - 3. Andante cantabile, ma pero con mot
TTITLE3=o
TTITLE4=(CHANDOS CHAN 8355) Beethoven - Piano Trio No. 7 in B flat maj
TTITLE4=or Op. 97 ''Archduke'' - 4. finale, allegro
TTITLE5=(CHANDOS CHAN 8355) Beethoven - Piano Trio No. 10in E flat maj
TTITLE5=or Op.44 - 14 variations on an original theme
EXTD=YEAR: 1984
EXTT0=
EXTT1=
EXTT2=
EXTT3=
EXTT4=
EXTT5=
PLAYORDER=
